<svg xmlns="http://www.w3.org/2000/svg" xmlns:xlink="http://www.w3.org/1999/xlink" width="500" zoomAndPan="magnify" viewBox="0 0 375 374.999991" height="500" preserveAspectRatio="xMidYMid meet" version="1.0"><defs><g/><clipPath id="d46003b0d6"><path d="M 33.285156 0 L 341.53125 0 L 341.53125 280.5 L 33.285156 280.5 Z M 33.285156 0 " clip-rule="nonzero"/></clipPath><clipPath id="3c44e7e5ed"><path d="M 33.371094 0 L 341.535156 0 L 341.535156 280.382812 L 33.371094 280.382812 Z M 33.371094 0 " clip-rule="nonzero"/></clipPath></defs><g clip-path="url(#d46003b0d6)"><path fill="#ffffff" d="M 33.371094 0 L 341.632812 0 L 341.632812 280.382812 L 33.371094 280.382812 Z M 33.371094 0 " fill-opacity="1" fill-rule="nonzero"/></g><g clip-path="url(#3c44e7e5ed)"><path fill="#000000" d="M 201.984375 206.269531 C 168.28125 200.472656 149.382812 223.597656 153.046875 246.476562 C 143.898438 224.136719 154.074219 184.351562 208.441406 192.117188 C 220.535156 193.847656 232.367188 198.082031 246.929688 198.660156 C 255.574219 199.007812 266.863281 196.351562 274.292969 191.015625 C 281.488281 185.847656 284.835938 178.480469 290.863281 174.417969 C 302.089844 168.230469 299.277344 161.753906 291.554688 159.863281 C 263.273438 152.957031 261.582031 144.050781 244.789062 136.535156 C 241.234375 110.65625 212.804688 94.835938 198.496094 89.394531 C 189.121094 55.367188 149.898438 51.832031 149.898438 51.832031 C 152.925781 60.140625 151.207031 66.535156 154.925781 80.507812 C 133.296875 76.097656 96.351562 84.253906 77.808594 99.144531 C 96.351562 94.191406 114.230469 95.667969 114.230469 95.667969 C 114.230469 95.667969 52.390625 104.488281 40.371094 157.660156 C 52.222656 139.367188 68.023438 132.492188 68.023438 132.492188 C 50.621094 150.15625 43.773438 171.453125 41.082031 185.371094 C 36.15625 171.707031 33.453125 157.117188 33.359375 141.96875 C 32.894531 64.21875 101.585938 0.503906 186.476562 0 C 272.078125 -0.503906 341.632812 62.890625 341.632812 141.164062 C 341.632812 209.546875 288.546875 266.570312 218.046875 279.558594 C 205.226562 281.914062 191.832031 279.1875 181.636719 271.699219 C 153.195312 250.832031 167.054688 208.203125 201.984375 206.269531 " fill-opacity="1" fill-rule="nonzero"/></g><path fill="#000000" d="M 230.328125 135.574219 C 214.476562 138.398438 216.046875 125.5 208.449219 121.359375 C 222.804688 120.65625 229.066406 130.164062 230.328125 135.574219 " fill-opacity="1" fill-rule="nonzero"/><g fill="#000000" fill-opacity="1"><g transform="translate(27.343466, 358.344564)"><g><path d="M 38.28125 0 L 32.515625 -27.140625 L 32.25 -27.140625 L 26.484375 0 L 10.75 0 L 0.328125 -44.5625 L 15.21875 -44.5625 L 20.34375 -19.296875 L 20.59375 -19.296875 L 25.640625 -44.5625 L 39.765625 -44.5625 L 45.140625 -19.296875 L 45.40625 -19.296875 L 50.1875 -44.5625 L 64.4375 -44.5625 L 54.015625 0 Z M 38.28125 0 "/></g></g></g><g fill="#000000" fill-opacity="1"><g transform="translate(92.114609, 358.344564)"><g><path d="M 21.5625 -34.96875 C 27.5625 -34.96875 32.273438 -33.445312 35.703125 -30.40625 C 39.140625 -27.363281 40.859375 -22.925781 40.859375 -17.09375 C 40.859375 -11.269531 39.140625 -6.832031 35.703125 -3.78125 C 32.273438 -0.738281 27.5625 0.78125 21.5625 0.78125 C 15.5625 0.78125 10.851562 -0.726562 7.4375 -3.75 C 4.03125 -6.78125 2.328125 -11.226562 2.328125 -17.09375 C 2.328125 -22.96875 4.03125 -27.414062 7.4375 -30.4375 C 10.851562 -33.457031 15.5625 -34.96875 21.5625 -34.96875 Z M 21.5625 -26.234375 C 17.332031 -26.234375 15.21875 -23.789062 15.21875 -18.90625 L 15.21875 -15.21875 C 15.21875 -10.382812 17.332031 -7.96875 21.5625 -7.96875 C 25.84375 -7.96875 27.984375 -10.382812 27.984375 -15.21875 L 27.984375 -18.90625 C 27.984375 -23.789062 25.84375 -26.234375 21.5625 -26.234375 Z M 21.5625 -26.234375 "/></g></g></g><g fill="#000000" fill-opacity="1"><g transform="translate(135.316957, 358.344564)"><g><path d="M 4.34375 0 L 4.34375 -46.953125 L 17.234375 -46.953125 L 17.234375 0 Z M 4.34375 0 "/></g></g></g><g fill="#000000" fill-opacity="1"><g transform="translate(156.885752, 358.344564)"><g><path d="M 17.8125 -47.734375 C 18.757812 -47.734375 19.945312 -47.613281 21.375 -47.375 C 22.800781 -47.132812 23.945312 -46.863281 24.8125 -46.5625 L 24.8125 -38.984375 L 21.828125 -38.984375 C 20.441406 -38.984375 19.488281 -38.722656 18.96875 -38.203125 C 18.457031 -37.691406 18.203125 -36.8125 18.203125 -35.5625 L 18.203125 -34.203125 L 24.8125 -34.203125 L 24.8125 -25.453125 L 18.203125 -25.453125 L 18.203125 0 L 5.3125 0 L 5.3125 -25.453125 L 0.515625 -25.453125 L 0.515625 -34.203125 L 5.3125 -34.203125 L 5.3125 -35.625 C 5.3125 -40.03125 6.390625 -43.148438 8.546875 -44.984375 C 10.703125 -46.816406 13.789062 -47.734375 17.8125 -47.734375 Z M 17.8125 -47.734375 "/></g></g></g><g fill="#000000" fill-opacity="1"><g transform="translate(182.081733, 358.344564)"><g><path d="M 26.03125 -45.34375 C 32.632812 -45.34375 37.859375 -43.6875 41.703125 -40.375 C 45.546875 -37.070312 47.46875 -32.359375 47.46875 -26.234375 L 33.8125 -26.234375 C 33.8125 -28.816406 33.128906 -30.863281 31.765625 -32.375 C 30.410156 -33.894531 28.476562 -34.65625 25.96875 -34.65625 C 23.070312 -34.65625 20.941406 -33.742188 19.578125 -31.921875 C 18.222656 -30.109375 17.546875 -27.585938 17.546875 -24.359375 L 17.546875 -20.203125 C 17.546875 -17.015625 18.222656 -14.5 19.578125 -12.65625 C 20.941406 -10.820312 23.03125 -9.90625 25.84375 -9.90625 C 28.601562 -9.90625 30.695312 -10.617188 32.125 -12.046875 C 33.550781 -13.472656 34.265625 -15.476562 34.265625 -18.0625 L 47.46875 -18.0625 C 47.46875 -11.976562 45.597656 -7.316406 41.859375 -4.078125 C 38.128906 -0.835938 32.851562 0.78125 26.03125 0.78125 C 18.4375 0.78125 12.6875 -1.160156 8.78125 -5.046875 C 4.875 -8.929688 2.921875 -14.675781 2.921875 -22.28125 C 2.921875 -29.875 4.875 -35.613281 8.78125 -39.5 C 12.6875 -43.394531 18.4375 -45.34375 26.03125 -45.34375 Z M 26.03125 -45.34375 "/></g></g></g><g fill="#000000" fill-opacity="1"><g transform="translate(232.473672, 358.344564)"><g><path d="M 21.5625 -34.96875 C 27.5625 -34.96875 32.273438 -33.445312 35.703125 -30.40625 C 39.140625 -27.363281 40.859375 -22.925781 40.859375 -17.09375 C 40.859375 -11.269531 39.140625 -6.832031 35.703125 -3.78125 C 32.273438 -0.738281 27.5625 0.78125 21.5625 0.78125 C 15.5625 0.78125 10.851562 -0.726562 7.4375 -3.75 C 4.03125 -6.78125 2.328125 -11.226562 2.328125 -17.09375 C 2.328125 -22.96875 4.03125 -27.414062 7.4375 -30.4375 C 10.851562 -33.457031 15.5625 -34.96875 21.5625 -34.96875 Z M 21.5625 -26.234375 C 17.332031 -26.234375 15.21875 -23.789062 15.21875 -18.90625 L 15.21875 -15.21875 C 15.21875 -10.382812 17.332031 -7.96875 21.5625 -7.96875 C 25.84375 -7.96875 27.984375 -10.382812 27.984375 -15.21875 L 27.984375 -18.90625 C 27.984375 -23.789062 25.84375 -26.234375 21.5625 -26.234375 Z M 21.5625 -26.234375 "/></g></g></g><g fill="#000000" fill-opacity="1"><g transform="translate(275.67602, 358.344564)"><g><path d="M 24.671875 -35.03125 C 25.671875 -35.03125 26.554688 -34.910156 27.328125 -34.671875 C 28.109375 -34.441406 28.5 -34.304688 28.5 -34.265625 L 28.5 -23.4375 L 24.359375 -23.4375 C 21.679688 -23.4375 19.75 -22.742188 18.5625 -21.359375 C 17.375 -19.984375 16.78125 -17.9375 16.78125 -15.21875 L 16.78125 0 L 3.890625 0 L 3.890625 -34.203125 L 14.4375 -34.203125 L 15.28125 -29.015625 C 16.0625 -31.003906 17.289062 -32.503906 18.96875 -33.515625 C 20.65625 -34.523438 22.554688 -35.03125 24.671875 -35.03125 Z M 24.671875 -35.03125 "/></g></g></g><g fill="#000000" fill-opacity="1"><g transform="translate(304.434406, 358.344564)"><g><path d="M 21.5625 -34.96875 C 27.820312 -34.96875 32.601562 -33.5 35.90625 -30.5625 C 39.207031 -27.632812 40.859375 -23.144531 40.859375 -17.09375 L 40.859375 -14.890625 L 15.21875 -14.890625 C 15.21875 -12.429688 15.765625 -10.578125 16.859375 -9.328125 C 17.960938 -8.078125 19.703125 -7.453125 22.078125 -7.453125 C 24.242188 -7.453125 25.832031 -7.90625 26.84375 -8.8125 C 27.863281 -9.71875 28.375 -10.925781 28.375 -12.4375 L 40.859375 -12.4375 C 40.859375 -8.289062 39.28125 -5.050781 36.125 -2.71875 C 32.976562 -0.382812 28.382812 0.78125 22.34375 0.78125 C 16 0.78125 11.078125 -0.695312 7.578125 -3.65625 C 4.078125 -6.613281 2.328125 -11.09375 2.328125 -17.09375 C 2.328125 -22.96875 4.03125 -27.414062 7.4375 -30.4375 C 10.851562 -33.457031 15.5625 -34.96875 21.5625 -34.96875 Z M 22.078125 -26.75 C 18.023438 -26.75 15.757812 -24.828125 15.28125 -20.984375 L 27.84375 -20.984375 C 27.84375 -22.753906 27.335938 -24.15625 26.328125 -25.1875 C 25.316406 -26.226562 23.898438 -26.75 22.078125 -26.75 Z M 22.078125 -26.75 "/></g></g></g></svg>